<svg id="Filled" height="512" viewBox="0 0 512 512" width="512" xmlns="http://www.w3.org/2000/svg"><g><g><path d="m216 0h80v136h-80z" fill="#8ae6da"/><g><g><path d="m304 271.716v-15.716h-96v15.716a20 20 0 0 1 -5.858 14.142l-17.355 17.355a30 30 0 0 0 -8.787 21.213v169.574a10 10 0 0 0 10 10h140a10 10 0 0 0 10-10v-169.574a30 30 0 0 0 -8.787-21.213l-17.355-17.355a20 20 0 0 1 -5.858-14.142z" fill="#f1fcfb"/><g fill="#8ae6da"><rect height="40" rx="10" width="144" x="184" y="216"/><path d="m176 336h160v128h-160z"/></g></g><path d="m208 368h32v64h-32z" fill="#31cad0"/></g><path d="m288 136h-64l8 32h48z" fill="#31cad0"/></g><path d="m186 512h102v-16h-102a2 2 0 0 1 -2-2v-22h144v22a2 2 0 0 1 -2 2h-22v16h22a18.021 18.021 0 0 0 18-18v-118h-16v80h-144v-112h144v16h16v-35.574a37.75 37.75 0 0 0 -11.13-26.869l-17.355-17.357a11.919 11.919 0 0 1 -3.515-8.484v-7.716h6a18.021 18.021 0 0 0 18-18v-20a18.021 18.021 0 0 0 -18-18h-54v-32h16a8 8 0 0 0 7.761-6.06l6.485-25.94h1.754a8 8 0 0 0 8-8v-136h-16v32h-24v16h24v32h-24v16h24v32h-64v-56h-16v64a8 8 0 0 0 8 8h1.754l6.485 25.94a8 8 0 0 0 7.761 6.06h16v32h-54a18.021 18.021 0 0 0 -18 18v20a18.021 18.021 0 0 0 18 18h6v7.716a11.919 11.919 0 0 1 -3.515 8.485l-17.355 17.356a37.75 37.75 0 0 0 -11.13 26.869v169.574a18.021 18.021 0 0 0 18 18zm135.557-203.13a21.86 21.86 0 0 1 6.443 15.556v3.574h-64v-64h32v7.716a27.82 27.82 0 0 0 8.2 19.8zm-3.557-84.87a2 2 0 0 1 2 2v20a2 2 0 0 1 -2 2h-54v-24zm-79.754-64-4-16h43.508l-4 16zm-44.246 88a2 2 0 0 1 -2-2v-20a2 2 0 0 1 2-2h54v24zm-10 76.426a21.86 21.86 0 0 1 6.443-15.556l17.357-17.355a27.82 27.82 0 0 0 8.2-19.8v-7.715h32v64h-64z"/><path d="m200 408v24a8 8 0 0 0 8 8h32a8 8 0 0 0 8-8v-64a8 8 0 0 0 -8-8h-32a8 8 0 0 0 -8 8v24h16v-16h16v48h-16v-16z"/><path d="m264 360h48v16h-48z"/><path d="m264 392h48v16h-48z"/><path d="m264 424h48v16h-48z"/><path d="m208 0h16v56h-16z"/></g></svg>