<svg height="512" viewBox="0 0 60 60" width="512" xmlns="http://www.w3.org/2000/svg"><g id="Page-1" fill="none" fill-rule="evenodd"><g id="002---Punch-Bag" fill-rule="nonzero"><path id="Shape" d="m2 1h56c.5522847 0 1 .44771525 1 1v1c0 1.65685425-1.3431458 3-3 3h-52c-1.65685425 0-3-1.34314575-3-3v-1c0-.55228475.44771525-1 1-1z" fill="#02a9f4"/><path id="Shape" d="m58 1h-3c.5522847 0 1 .44771525 1 1v1c0 1.65685425-1.3431458 3-3 3h3c1.6568542 0 3-1.34314575 3-3v-1c0-.55228475-.4477153-1-1-1z" fill="#0377bc"/><rect id="Rectangle-path" fill="#f44335" height="40" rx="3" width="22" x="19" y="19"/><path id="Shape" d="m38 19h-3c1.6568542 0 3 1.3431458 3 3v34c0 1.6568542-1.3431458 3-3 3h3c1.6568542 0 3-1.3431458 3-3v-34c0-1.6568542-1.3431458-3-3-3z" fill="#c81e1e"/><path id="Shape" d="m29 26h12v4h-22v-4h4z" fill="#ff9801"/><path id="Shape" d="m37 52h4v-4h-22v4h12z" fill="#ff9801"/><g fill="#000"><path id="Shape" d="m58 0h-56c-1.1045695 0-2 .8954305-2 2v1c0 2.209139 1.790861 4 4 4h19.7c.4230961.89717661 1.0346584 1.69258288 1.793 2.332l-4.853 8.922c-1.5789768.5708463-2.6334045 2.0670152-2.64 3.746v34c0 2.209139 1.790861 4 4 4h16c2.209139 0 4-1.790861 4-4v-34c-.0067484-1.6792417-1.061629-3.1754866-2.641-3.746l-4.853-8.922c.7587036-.63931406 1.370613-1.43472799 1.794-2.332h19.7c2.209139 0 4-1.790861 4-4v-1c0-1.1045695-.8954305-2-2-2zm-29 10.922v7.078h-5.944l4.137-7.607c.5756172.2572982 1.183502.4352567 1.807.529zm11 36.078h-20v-16h20zm-2 11h-16c-1.1045695 0-2-.8954305-2-2v-3h11c.5522847 0 1-.4477153 1-1s-.4477153-1-1-1h-11v-2h20v2h-3c-.5522847 0-1 .4477153-1 1s.4477153 1 1 1h3v3c0 1.1045695-.8954305 2-2 2zm2-33h-11c-.5522847 0-1 .4477153-1 1s.4477153 1 1 1h11v2h-20v-2h3c.5522847 0 1-.4477153 1-1s-.4477153-1-1-1h-3v-3c.000724-.940603.6567769-1.7535924 1.576-1.953.276-.071-.761-.047 16.424-.047 1.1034291.0027483 1.9972517.8965709 2 2zm-3.056-7h-5.944v-7.078c.623498-.0937433 1.2313828-.2717018 1.807-.529zm-10.944-11h8c-.9442719 1.25902921-2.4262135 2-4 2s-3.0557281-.74097079-4-2zm32-4c0 1.1045695-.8954305 2-2 2h-52c-1.1045695 0-2-.8954305-2-2v-1h56z"/><path id="Shape" d="m14.555 32.168-3-2c-.297245-.1982824-.6776931-.2229246-.9980331-.0646441-.3203401.1582805-.5319049.4754371-.555.832-.02309515.3565629.1457881.6983617.4430331.8966441l3 2c.297245.1982824.6776931.2229246.9980331.0646441.3203401-.1582805.5319049-.4754371.555-.832s-.1457881-.6983617-.4430331-.8966441z"/><path id="Shape" d="m4 38c-.55228475 0-1 .4477153-1 1s.44771525 1 1 1h6c.5522847 0 1-.4477153 1-1s-.4477153-1-1-1z"/><path id="Shape" d="m48.445 30.168-3 2c-.297245.1982824-.4661282.5400812-.4430331.8966441s.2346599.6737195.555.832c.32034.1582805.7007881.1336383.9980331-.0646441l3-2c.297245-.1982824.4661282-.5400812.4430331-.8966441s-.2346599-.6737195-.555-.832c-.32034-.1582805-.7007881-.1336383-.9980331.0646441z"/><path id="Shape" d="m13.445 44.168-3 2c-.45950088.306518-.58351798.9274991-.277 1.387.3065181.4595009.9274991.583518 1.387.277l3-2c.297245-.1982824.4661282-.5400812.4430331-.8966441s-.2346599-.6737195-.555-.832c-.32034-.1582805-.7007881-.1336383-.9980331.0646441z"/><path id="Shape" d="m45.445 45.832 3 2c.297245.1982824.6776931.2229246.9980332.0646441.32034-.1582805.5319049-.4754371.555-.832s-.1457882-.6983617-.4430332-.8966441l-3-2c-.4595009-.306518-1.080482-.1825009-1.387.277s-.1825009 1.080482.277 1.387z"/><path id="Shape" d="m49 39c0 .5522847.4477153 1 1 1h6c.5522847 0 1-.4477153 1-1s-.4477153-1-1-1h-6c-.5522847 0-1 .4477153-1 1z"/></g></g></g></svg>