<svg height="512" viewBox="0 0 512 512" width="512" xmlns="http://www.w3.org/2000/svg"><g id="filled_outline" data-name="filled outline"><path d="m80 186.259 331.016-120a351.36 351.36 0 0 1 20.984 120z" fill="#f9adb1"/><ellipse cx="256" cy="345.13" fill="#b94137" rx="232" ry="110.87"/><path d="m314.221 115.897 47.003 9.733-12.423-18.912 20.534-20.257-23.502-4.866 6.489-31.336-47.28 31.059z" fill="#6b9777"/><path d="m80 192h352v168h-352z" fill="#fbb540"/><path d="m80 282.259h352v32h-352z" fill="#fbd699"/><g fill="#ea9d2d"><path d="m232 234.26h16v16h-16z"/><path d="m280 242.26h16v16h-16z"/><path d="m328 234.26h16v16h-16z"/><path d="m376 242.26h16v16h-16z"/></g><path d="m209.392 127.981a36.041 36.041 0 0 0 34.654 26.14h33.588a41.288 41.288 0 0 0 37.951-25.021l2.264-5.281a41.292 41.292 0 0 0 -8.755-45.461 41.292 41.292 0 0 0 -46.283-8.393l-33.679 15.305a36.04 36.04 0 0 0 -19.74 42.711z" fill="#f55648"/><path d="m273.188 82.26h16v16h-16z" fill="#c7463b"/><path d="m249.188 106.26h16v16h-16z" fill="#c7463b"/><path d="m281.188 114.26h16v16h-16z" fill="#c7463b"/><path d="m80 218.639h20.707a36 36 0 0 1 36 36v35.974a23.646 23.646 0 0 0 23.646 23.646 23.647 23.647 0 0 0 23.647-23.646v-36.3a36 36 0 0 1 36.055-36l211.945.326v-32.38h-352z" fill="#f55648"/><path d="m80 360h352v24h-352z" fill="#a83b32"/><path d="m440 268.254v-81.994a358.937 358.937 0 0 0 -21.459-122.728 8 8 0 0 0 -10.248-4.794l-48.488 17.578-4.519-.936 4.867-23.5a8 8 0 0 0 -12.226-8.31l-37.962 24.941a49.549 49.549 0 0 0 -50.465-5.832l-33.678 15.308a44.309 44.309 0 0 0 -24.122 52.192c.3 1.047.641 2.074 1.013 3.085l-125.44 45.474c-.03.011-.048.026-.077.037a8 8 0 0 0 -5.196 7.485v81.994c-36.155 21.233-56 48.4-56 76.876 0 32.87 25.749 63.27 72.5 85.614 44.876 21.445 104.362 33.256 167.5 33.256s122.624-11.811 167.5-33.256c46.751-22.344 72.5-52.744 72.5-85.614 0-28.471-19.845-55.643-56-76.876zm-248 22.358v-.352h232v16h-236.156a31.446 31.446 0 0 0 4.156-15.648zm0-16.352v-19.946a28 28 0 0 1 28-28h.044l203.956.312v47.634zm232-63.634-203.933-.312h-.067a44 44 0 0 0 -44 44v36.3a15.647 15.647 0 1 1 -31.293 0v-35.975a44.05 44.05 0 0 0 -44-44h-12.707v-16.379h336zm-295.293 63.634h-40.707v-47.621h12.707a28.031 28.031 0 0 1 28 28zm-40.707 16h40.707v.352a31.436 31.436 0 0 0 4.156 15.648h-44.863zm0 32h336v32h-336zm256.206-232.837 8.869 1.839-9.894 9.763a8 8 0 0 0 -1.068 10.086l1.819 2.77-14.819-3.068a48.907 48.907 0 0 0 -8.078-30.43l19.533-12.831-2.568 12.415a8 8 0 0 0 6.206 9.456zm-111.763 3.131 33.68-15.309a33.29 33.29 0 0 1 44.377 43.419l-2.264 5.28a33.252 33.252 0 0 1 -30.6 20.177h-33.59a28.159 28.159 0 0 1 -26.962-20.337 28.21 28.21 0 0 1 15.359-33.23zm11.6 69.567h33.588a49.233 49.233 0 0 0 45.3-29.874l2.264-5.28c.082-.191.154-.384.234-.576l34.162 7.073a8 8 0 0 0 8.309-12.226l-8.821-13.429 15.863-15.655a7.981 7.981 0 0 0 2.358-5.154l28.843-10.456a342.718 342.718 0 0 1 17.757 101.716h-298.358l85.558-31.015a44.184 44.184 0 0 0 32.946 14.876zm172.557 254.188c-42.765 20.436-99.8 31.691-160.6 31.691s-117.835-11.255-160.6-31.691c-40.884-19.539-63.4-44.818-63.4-71.179 0-20.52 14.091-40.814 40-58.029v75.159a8 8 0 0 0 8 8h352a8 8 0 0 0 8-8v-75.16c25.909 17.215 40 37.509 40 58.029 0 26.362-22.516 51.641-63.4 71.18z"/><path d="m232 234.26h16v16h-16z"/><path d="m280 242.26h16v16h-16z"/><path d="m328 234.26h16v16h-16z"/><path d="m376 242.26h16v16h-16z"/><path d="m273.188 82.26h16v16h-16z"/><path d="m249.188 106.26h16v16h-16z"/><path d="m281.188 114.26h16v16h-16z"/></g></svg>