<?xml version="1.0" encoding="iso-8859-1"?>
<!-- Generator: Adobe Illustrator 19.0.0, SVG Export Plug-In . SVG Version: 6.00 Build 0)  -->
<svg version="1.1" id="Capa_1" xmlns="http://www.w3.org/2000/svg" xmlns:xlink="http://www.w3.org/1999/xlink" x="0px" y="0px"
	 viewBox="0 0 512 512" style="enable-background:new 0 0 512 512;" xml:space="preserve">
<path style="fill:#AEAEB3;" d="M428.79,141.367c30.08-34.14,52.18-65.58,57.47-81.14c-38.63-1.34-75.02,14.57-100.17,42.16
	c-29.34-13.57-80.14-22.24-130.34-22.24s-101,8.67-130.34,22.23c-25.16-27.59-61.56-43.49-100.17-42.15
	c5.14,15.14,26.2,45.29,55.02,78.35c-42.13,24.14-70.51,69.54-70.51,121.57c0,77.32,62.68,140,140,140
	c12.25,0,27.14-1.57,38.47-4.53l0.34-0.35l53.05,50.74c7.81,7.81,20.47,7.81,28.28,0l55.35-52.94l0.29,0.3
	c12.96,4.4,29.81,6.78,44.2,6.78c72.91,0,132.02-61.15,132.02-136.59C501.75,210.087,472.05,163.788,428.79,141.367z"/>
<path style="fill:#787880;" d="M255.75,360.148c0,0-33.7-21.05-41.43-48.88c-1-3.6-1.57-7.32-1.57-11.12
	c0-14.78,3.56-28.32,9.48-38.78l0.58-1.12c11.45,5.92,22.53,10.33,32.94,12.81c10.41-2.48,21.49-6.89,32.94-12.81l0.58,1.12
	c5.92,10.46,9.48,24,9.48,38.78c0,3.8-0.57,7.52-1.57,11.12C289.45,339.098,255.75,360.148,255.75,360.148z"/>
<path style="fill:#FED46B;" d="M222.81,260.248l-0.58,1.12c-5.92,10.46-9.48,24-9.48,38.78c0,3.8,0.57,7.52,1.57,11.12l-0.1,0.03
	c-14.69,17.62-36.79,28.85-61.47,28.85c-44.11,0-80-35.89-80-80c0-34.11,21.46-63.31,51.59-74.79l0.18-0.18
	C156.01,215.608,190.87,243.758,222.81,260.248z"/>
<path style="fill:#787880;" d="M172.75,260.148c0-11.05-8.95-20-20-20s-20,8.95-20,20c0,11.05,8.95,20,20,20
	S172.75,271.198,172.75,260.148z"/>
<path style="fill:#FED46B;" d="M387.16,185.358c30.13,11.48,51.59,40.68,51.59,74.79c0,44.11-35.89,80-80,80
	c-24.68,0-46.78-11.23-61.47-28.85l-0.1-0.03c1-3.6,1.57-7.32,1.57-11.12c0-14.78-3.56-28.32-9.48-38.78l-0.58-1.12
	c31.94-16.49,66.8-44.64,98.29-75.07L387.16,185.358z"/>
<path style="fill:#787880;" d="M378.75,260.148c0-11.05-8.95-20-20-20s-20,8.95-20,20c0,11.05,8.95,20,20,20
	S378.75,271.198,378.75,260.148z"/>
<g>
	<path style="fill:#020202;" d="M266,130.148c5.52,0,10-4.48,10-10s-4.48-10-10-10s-10,4.48-10,10S260.48,130.148,266,130.148z"/>
	<path style="fill:#020202;" d="M444.514,138.778c26.745-31.391,46.148-59.695,51.464-75.332c1.019-2.995,0.56-6.296-1.238-8.899
		c-1.797-2.604-4.721-4.204-7.883-4.313c-38.573-1.334-75.678,13.251-102.928,40.229C352.605,77.853,304.539,70.148,256,70.148
		c-48.531,0-96.599,7.703-127.929,20.307c-27.252-26.973-64.378-41.55-102.928-40.221c-3.161,0.109-6.084,1.709-7.882,4.312
		c-1.797,2.603-2.257,5.902-1.241,8.897c5.207,15.338,23.42,42.146,49.359,72.857C24.782,164.114,0,210.526,0,260.148
		c0,82.71,67.29,150,150,150c11.926,0,25.248-1.387,36.042-3.689l48.834,46.706c5.837,5.791,13.48,8.686,21.124,8.686
		s15.287-2.895,21.124-8.686l50.867-48.651c12.612,3.559,27.875,5.634,41.989,5.634c78.31,0,142.02-65.76,142.02-146.59
		C512,211.669,485.733,165.043,444.514,138.778z M118.271,109.116c2.939,3.224,7.628,4.17,11.584,2.339
		C157.861,98.512,207.376,90.148,256,90.148c48.631,0,98.145,8.367,126.142,21.316c3.958,1.83,8.648,0.885,11.589-2.34
		c20.041-21.985,47.296-35.522,76.507-38.398C435.983,128.711,326.336,244.054,256,262.745
		C185.391,243.983,75.368,127.497,41.778,70.727C70.978,73.607,98.232,87.141,118.271,109.116z M255.964,347.99
		c-10.382-7.696-27.19-22.95-31.759-39.398c-0.8-2.88-1.205-5.721-1.205-8.444c0-9.431,1.654-18.585,4.729-26.515
		c9.128,4.147,17.826,7.216,25.954,9.153c0.762,0.182,1.539,0.272,2.317,0.272c0.778,0,1.556-0.091,2.317-0.272
		c8.129-1.937,16.827-5.006,25.954-9.153c3.075,7.93,4.728,17.084,4.728,26.515c0,2.723-0.405,5.563-1.206,8.444
		C282.911,326.174,264.987,341.295,255.964,347.99z M122.715,197.054c11.357,10.767,24.875,22.861,39.547,34.564
		c-2.919-0.95-6.03-1.47-9.262-1.47c-16.542,0-30,13.458-30,30s13.458,30,30,30s30-13.458,30-30c0-6.07-1.818-11.721-4.929-16.448
		c10.339,7.548,21.041,14.64,31.809,20.761c-4.464,10.706-6.879,23.073-6.879,35.687c0,2.702,0.237,5.444,0.696,8.196
		c-13.218,13.904-31.438,21.804-50.696,21.804c-38.598,0-70-31.401-70-70C83,233.276,98.741,208.627,122.715,197.054z M163,260.148
		c0,5.514-4.486,10-10,10s-10-4.486-10-10s4.486-10,10-10S163,254.634,163,260.148z M302.12,264.461
		c10.768-6.121,21.47-13.214,31.809-20.762c-3.112,4.727-4.93,10.378-4.93,16.449c0,16.542,13.458,30,30,30s30-13.458,30-30
		s-13.458-30-30-30c-3.232,0-6.344,0.52-9.263,1.47c14.673-11.703,28.191-23.797,39.548-34.564
		C413.259,208.627,429,233.276,429,260.148c0,38.599-31.402,70-70,70c-19.258,0-37.479-7.9-50.696-21.803
		c0.459-2.753,0.696-5.495,0.696-8.197C309,287.532,306.584,275.166,302.12,264.461z M349,260.148c0-5.514,4.486-10,10-10
		s10,4.486,10,10s-4.486,10-10,10S349,265.661,349,260.148z M369.98,390.148c-8.022,0-16.629-0.798-24.659-2.208l0.59-0.564
		c3.992-3.817,4.133-10.147,0.316-14.139c-3.818-3.993-10.149-4.133-14.139-0.316l-68.861,65.861
		c-0.054,0.051-0.106,0.104-0.159,0.155c-3.896,3.898-10.24,3.898-14.137,0c-0.053-0.052-0.105-0.104-0.159-0.155l-68.861-65.86
		c-3.992-3.819-10.321-3.677-14.139,0.314c-3.817,3.992-3.676,10.322,0.315,14.139l1.825,1.745
		c-5.933,0.661-12.095,1.028-17.913,1.028c-71.682,0-130-58.317-130-130c0-43.782,22.258-84.692,58.585-108.64
		c9.442,10.583,19.195,20.92,29.138,30.902C80.496,198.372,63,228.021,63,260.148c0,49.626,40.374,90,90,90
		c21.537,0,42.067-7.669,58.225-21.415c13.286,23.317,38.218,39.11,39.477,39.896c1.621,1.013,3.459,1.519,5.298,1.519
		s3.677-0.506,5.298-1.519c1.259-0.786,26.191-16.58,39.477-39.897c16.157,13.746,36.687,21.415,58.225,21.415
		c49.626,0,90-40.374,90-90c0-32.125-17.494-61.773-44.72-77.736c9.15-9.186,18.146-18.684,26.883-28.394
		c37.71,22.63,60.837,63.901,60.837,109.54C492,333.359,437.263,390.148,369.98,390.148z"/>
	<path style="fill:#020202;" d="M304.495,133.374c24.214,3.337,45.306,8.582,57.868,14.391c5.035,2.327,10.967,0.109,13.273-4.881
		c2.317-5.013,0.133-10.955-4.881-13.273c-19.555-9.041-48.197-13.936-63.53-16.049c-5.464-0.748-10.518,3.069-11.271,8.541
		C295.2,127.573,299.024,132.62,304.495,133.374z"/>
</g>
<g>
</g>
<g>
</g>
<g>
</g>
<g>
</g>
<g>
</g>
<g>
</g>
<g>
</g>
<g>
</g>
<g>
</g>
<g>
</g>
<g>
</g>
<g>
</g>
<g>
</g>
<g>
</g>
<g>
</g>
</svg>
